<?xml version="1.0" standalone="no"?><!DOCTYPE svg PUBLIC "-//W3C//DTD SVG 1.1//EN" "http://www.w3.org/Graphics/SVG/1.1/DTD/svg11.dtd"><svg t="1629093383138" class="icon" viewBox="0 0 1931 1024" version="1.1" xmlns="http://www.w3.org/2000/svg" p-id="22121" xmlns:xlink="http://www.w3.org/1999/xlink" width="377.1484375" height="200"><defs><style type="text/css"></style></defs><path d="M696.301826 679.150978c-8.618667-21.833957-12.640712-64.352715-5.745778-88.484983l19.535646 5.1712c-5.1712 17.811912-2.298311 56.308626 5.1712 75.844272L696.301826 679.150978zM905.448151 626.864397l-11.491556-16.662757c23.55769-16.088179 41.944181-50.562848 53.435737-78.142583-45.966225 20.110224-100.551118 21.259379-149.390232 22.408535-7.469512 0-14.939023 0.574578-21.833957 0.574578-13.21529 0.574578-56.308626 4.596623-66.651027 40.220447l-19.535646-5.745778c11.491556-38.496714 51.712003-53.435737 85.612095-54.584893 7.469512 0 14.939023-0.574578 22.408535-0.574577 55.15947-1.149156 117.788452-2.872889 162.605522-32.176358l23.55769-15.513601-8.044089 27.005157c-9.767823 30.452624-34.474669 88.484984-70.673072 113.19183zM665.274624 724.542626l-7.469511-18.38649c-7.469512 2.872889-13.789868 6.894934-19.535646 11.491556-14.939023 10.342401-24.132268 26.43058-26.43058 44.81707-2.298311 17.811912 3.447467 34.474669 15.513601 47.689958l14.939024-13.789867c-8.044089-8.618667-11.491556-19.535646-9.767823-31.60178 1.723733-12.640712 8.618667-24.706846 18.961068-31.60178 3.447467-3.447467 8.044089-6.320356 13.789867-8.618667z" fill="#43a109" p-id="22122"></path><path d="M616.43551 626.864397c-20.110224 0-40.220447-5.745778-51.712003-23.55769-24.132268-33.325513-53.435737-133.302053 9.767822-231.55486l12.640712-19.535646 5.745778 22.408535c0 0.574578 12.640712 48.264537 40.795025 88.484984 8.618667 11.491556 18.961068 23.55769 28.728891 35.623824 17.811912 21.259379 28.728891 35.049247 32.176358 43.667914 6.894934 16.088179 6.894934 32.750935 0.574578 47.115381-5.745778 13.21529-16.088179 22.983113-28.728891 28.154313-12.640712 4.596623-31.027202 9.193245-49.98827 9.193245z m-36.198402-224.659926c-41.944181 82.739205-18.38649 163.754677 1.149155 189.610679l0.574578 0.574578c13.21529 20.110224 52.861159 15.513601 77.568005 5.745778 8.044089-2.872889 14.364445-9.193245 17.811912-17.237334 2.872889-6.320356 5.1712-17.237334-1.149155-31.60178-2.298311-6.320356-16.662757-22.983113-29.303469-37.922136-9.767823-11.491556-20.110224-24.706846-29.303468-36.198402-18.38649-25.856002-30.452624-54.010315-37.347558-72.971383z" fill="#43a109" p-id="22123"></path><path d="M541.740394 777.978363c-27.579735 0-50.562848-8.044089-63.20356-56.308626v-1.149156c0-1.723733-1.149156-4.596623-1.723733-8.044089-5.745778-24.132268-18.961068-80.440894 12.066134-194.207302l5.745778-22.408535 12.066134 19.535646c0.574578 1.149156 57.457782 91.932451 101.125696 145.368187l0.574578 1.149156c24.706846 39.645869 21.259379 66.076449 13.789867 81.59005-8.618667 17.811912-25.856002 29.878046-48.839114 32.750935h-0.574578c-3.447467 0-6.894934 0.574578-10.342401 0.574578-6.894934 1.149156-13.789868 1.149156-20.684801 1.149156zM498.07248 717.073114c11.491556 43.667914 27.579735 42.518758 63.20356 39.645869 3.447467 0 6.894934-0.574578 10.3424-0.574577 15.513601-2.298311 27.005157-9.767823 32.750936-21.25938 7.469512-15.513601 2.872889-37.347558-12.640712-62.054404-32.176358-39.071291-70.098494-97.103651-89.634139-126.981697-21.833957 94.230762-10.916978 140.771565-6.320356 162.030944 1.149156 4.022045 2.298311 6.894934 2.298311 9.193245z" fill="#43a109" p-id="22124"></path><path d="M500.370791 1015.279l-52.861159-6.320356-5.1712-9.193245 2.872889-5.1712c29.878046-53.435737 85.612095-166.052989 85.612094-207.997169v-16.662757l14.939024 7.469512c29.303469 14.939023 65.501871 31.027202 73.54596 31.027202 4.022045-0.574578 8.044089 1.149156 10.342401 4.596622 4.596623 7.469512 6.320356 10.342401-60.905249 106.871474-31.60178 44.81707-63.778138 89.634139-64.352715 90.208717l-4.022045 5.1712z m-31.027202-24.132268l21.833957 2.298311c48.839114-67.225604 99.97654-140.771565 115.490141-167.202144-15.513601-4.596623-37.347558-14.364445-57.457782-24.706846-9.193245 55.15947-59.756093 152.837699-79.866316 189.610679zM398.670518 725.117203c-8.044089 0-16.662757-2.298311-28.154313-6.320355-41.369603-11.491556-44.242492-41.944181-44.242492-46.540804 0-4.022045-1.149156-36.198402 31.027202-62.628981l1.149156-0.574578 3.447467-2.298312c35.623825-23.55769 66.651027-44.242492 79.866316-75.269693l7.469512-17.237335 10.3424 15.513601c12.066134 18.38649 15.513601 110.893518-20.110223 164.903833-14.364445 22.408535-25.856002 30.452624-40.795025 30.452624z m-52.286581-52.861159c0 2.298311 1.723733 20.110224 29.878046 27.579736h0.574578c23.55769 8.618667 28.728891 9.193245 45.391647-16.088179 22.983113-35.049247 26.43058-90.783295 24.132268-121.235919-18.38649 24.132268-45.391647 41.944181-74.120538 60.905248l-2.872889 2.298311c-24.706846 20.684801-23.55769 44.81707-23.55769 45.966226l0.574578 0.574577z" fill="#43a109" p-id="22125"></path><path d="M404.990874 833.712411c-14.939023 0-28.154313-6.320356-38.496714-17.811913-11.491556-13.21529-16.088179-31.60178-12.640712-47.115381 3.447467-13.789868 20.684801-32.750935 41.944181-45.966225 21.259379-13.21529 58.032359-44.242492 68.37476-65.501871l12.640712-25.281424 6.320356 27.579735c6.320356 28.728891 0.574578 66.651027-5.171201 93.656184-4.596623 18.961068-17.811912 76.418849-68.949338 79.866317-1.149156 0.574578-2.298311 0.574578-4.022044 0.574578z m-31.027202-59.756093c-2.298311 9.193245 1.149156 21.259379 8.618667 29.303468 4.596623 5.1712 12.640712 11.491556 25.856002 10.342401 24.706846-1.723733 40.795025-21.833957 50.562847-64.352715 4.596623-22.408535 7.469512-42.518758 7.469512-59.181515-18.961068 21.833957-46.540803 41.944181-59.181515 49.98827-18.961068 12.066134-31.60178 27.579735-33.325513 33.900091zM323.975402 742.354538c-5.1712 0-10.916978-0.574578-16.662757-2.298311C263.644731 729.139248 213.081883 680.300134 205.612372 599.85924l-2.872889-26.43058 19.535645 18.38649c0.574578 0.574578 39.645869 35.623825 127.556275 56.883204 21.259379 6.320356 28.728891 17.811912 31.60178 26.43058 4.596623 14.939023-1.723733 29.878046-8.618667 39.071291-12.640712 18.38649-29.303469 27.579735-48.839114 28.154313zM229.170062 621.118619C242.385352 678.001823 279.73291 711.901914 312.483845 720.520581c17.811912 4.596623 32.750935-1.149156 44.242492-18.38649l0.574578-0.574578c4.022045-5.1712 7.469512-13.789868 5.1712-20.684801-1.723733-5.745778-8.044089-10.342401-17.811912-13.21529C287.776999 653.869554 250.429441 634.908486 229.170062 621.118619z" fill="#43a109" p-id="22126"></path><path d="M309.036378 852.673479c-13.789868 0-30.452624-5.745778-48.839114-21.25938l-0.574578-1.149155c-32.750935-34.474669-59.181515-74.695116-81.590049-121.810497l-12.066135-25.281424 25.281424 12.066134c0.574578 0 52.861159 24.706846 135.600365 51.712003l0.574578 0.574578c31.027202 13.21529 39.645869 31.60178 41.369602 44.242492 1.723733 15.513601-5.1712 31.60178-18.38649 41.944181-9.767823 9.767823-24.132268 18.961068-41.369603 18.961068z m-35.049246-36.772981c31.60178 26.43058 50.562848 15.513601 63.203559 2.872889l1.149156-1.149155c8.044089-5.745778 12.066134-14.939023 11.491556-23.557691-1.149156-10.916978-11.491556-20.684801-28.72889-28.154313C271.114243 749.82405 232.617529 734.885026 209.059839 725.117203c18.38649 34.474669 39.071291 63.778138 64.927293 90.783295zM421.65363 1012.980689c-8.044089 0-9.767823-8.044089-10.3424-13.21529-18.961068-101.125696-36.198402-133.876631-44.242492-144.219031l-12.066134-15.513601 19.535645-1.149156c21.259379-1.149156 47.115381-4.022045 52.86116-6.894934l4.596622-4.596622 6.320356 2.298311c7.469512 2.872889 10.916978 4.022045 18.38649 160.307211l0.574578 6.320356-34.474669 16.088178c-0.574578 0.574578-0.574578 0.574578-1.149156 0.574578z m-29.878046-155.13601c12.640712 25.281424 25.281424 68.949338 37.347558 129.854586l7.469512-3.447467c-2.872889-52.861159-6.320356-108.595207-9.193245-131.003742-7.469512 1.723733-18.38649 3.447467-35.623825 4.596623z m35.623825-25.856002zM257.898953 622.842352c-17.811912 0-36.77298-6.320356-51.712004-16.662756l-1.149155-0.574578c-45.966225-40.220447-60.905248-71.822227-63.20356-133.302053l-1.149156-29.303469 18.961068 22.408535s3.447467 4.022045 9.767823 9.767823c-36.77298-36.77298-68.949338-98.827384-59.181515-132.727476l4.596623-15.513601 12.066134 10.916979C144.707123 353.365357 194.120815 392.436648 228.595484 398.757004c-4.022045-5.1712-6.894934-12.066134-8.618667-19.535646C206.761527 305.10082 234.341262 239.598949 235.490418 236.72606l5.745778-13.21529L251.578597 233.278593c1.723733 1.723733 45.966225 43.667914 71.247649 91.357873 12.640712 20.684801 14.939023 40.220447 6.894934 57.457781 44.242492-32.750935 53.435737-46.540803 67.800182-67.800182l15.513601-23.55769 2.298311 28.154313c0 1.149156 8.044089 91.357873-21.833957 135.025786 16.662757-14.364445 26.43058-26.43058 27.005158-31.601779v0.574577l19.535645-3.447466v1.723733c1.149156 10.342401 9.767823 93.656184-24.132268 149.390232-14.939023 28.154313-35.049247 41.944181-60.905248 41.944181h-0.574578c-24.132268-1.723733-36.77298-12.640712-44.242492-25.281424-2.298311 6.894934-5.745778 13.21529-9.767823 17.237334-10.342401 13.21529-25.856002 18.38649-42.518758 18.38649z m-39.645869-32.750935c21.259379 14.364445 52.286581 18.961068 68.37476 1.149155l0.574578-0.574577c5.1712-5.1712 9.767823-19.535646 5.745778-29.878047-1.149156-2.298311-3.447467-9.193245-16.662757-10.3424h-0.574578c-49.98827-6.894934-89.059561-33.900091-110.893518-52.86116 5.1712 39.071291 18.961068 62.054404 53.435737 92.507029z m103.424006-37.347558c2.872889 20.110224 8.044089 37.922136 35.049247 40.220447 12.066134 0 28.154313-4.022045 43.093336-32.176358 18.961068-31.027202 22.983113-75.269694 22.983113-106.296896-18.38649 19.535646-46.540803 39.645869-68.949338 52.861159-29.303469 15.513601-31.60178 40.795025-32.176358 45.391648z m-43.667914-21.833957c12.066134 1.149156 20.110224 5.1712 25.281424 10.3424 3.447467-13.789868 12.640712-36.198402 40.795025-51.137425 2.872889-1.723733 5.1712-2.872889 8.04409-4.596623-5.745778 1.723733-12.066134 2.872889-18.38649 2.872889-16.662757 0-31.027202-6.320356-40.220448-17.811912V470.004653c-0.574578-0.574578-2.872889-4.022045-4.596622-10.3424-0.574578 3.447467-1.723733 6.320356-2.872889 8.618667v0.574578c-5.1712 10.342401-19.535646 28.728891-41.369603 35.049246-16.088179 4.596623-33.325513 1.723733-49.98827-8.618667-2.872889-1.723733-6.320356-4.022045-9.193245-6.320356 20.684801 16.088179 52.861159 36.77298 92.507028 41.944181z m-148.241076-164.903833c6.320356 34.474669 39.071291 89.634139 75.269694 111.468096 12.066134 7.469512 23.55769 9.767823 34.474669 6.894934 15.513601-4.596623 25.856002-18.961068 28.728891-24.706846 2.298311-6.894934 2.872889-18.38649-2.298312-26.43058-5.1712-8.044089-14.939023-12.640712-29.878046-13.789867-33.900091 0-81.59005-33.900091-106.296896-53.435737z m180.417434 91.93245c5.1712 6.320356 13.21529 9.767823 23.557691 9.767823 15.513601 0 32.176358-8.618667 41.94418-22.408535 15.513601-20.684801 21.259379-62.054404 21.259379-95.954495-10.916978 13.21529-27.005157 28.154313-57.457781 50.562848-43.093336 31.60178-31.027202 55.734048-29.303469 58.032359z m-31.027202-41.369603c1.723733 1.723733 3.447467 4.022045 4.596623 5.745779 2.298311 4.022045 4.022045 8.044089 5.1712 12.066134 1.723733-6.320356 4.596623-13.789868 9.767823-21.259379-5.1712 1.723733-12.066134 2.872889-19.535646 3.447466zM248.705708 259.134595C241.810774 281.54313 230.893796 326.934777 239.512463 375.773892c1.723733 8.044089 5.745778 13.789868 13.21529 17.237334 14.939023 7.469512 37.347558 2.872889 41.369602 0.574578 22.408535-14.939023 26.43058-33.900091 11.491557-58.03236l-0.574578-0.574577C288.926155 303.951665 263.070153 274.648196 248.705708 259.134595zM829.60388 544.699769c-17.237334 0-32.176358-5.1712-44.242492-16.088178l-1.149156-1.149156c-1.149156-1.149156-1.723733-2.298311-2.872889-3.447467-12.066134-13.789868-33.900091-39.645869-18.38649-87.335828v-0.574578c0.574578-2.298311 20.684801-51.137426 111.468096-51.137425 81.59005 2.298311 147.666499-15.513601 156.285166-26.43058l22.983113-27.005157-5.171201 35.049246c-3.447467 22.983113-89.634139 126.407119-137.324098 151.113966-32.176358 17.811912-59.181515 27.005157-81.590049 27.005157z m-30.452625-30.452624c20.684801 17.811912 54.010315 13.21529 102.274852-14.364445 33.900091-17.811912 85.037517-76.418849 110.893518-110.893519-34.474669 10.916978-87.910406 17.237334-138.473254 16.088179-72.971383 0-90.783295 34.474669-92.507028 37.922136-11.491556 36.77298 4.596623 55.734048 14.939023 67.800182 1.149156 1.149156 2.298311 2.298311 2.872889 3.447467z m-118.937608-33.325513c-17.237334 0-32.750935-4.596623-44.817069-13.21529-19.535646-13.789868-30.452624-36.198402-32.750936-67.225604-2.298311-63.778138 0.574578-121.810497 59.756093-183.864901l13.789868-14.364446 3.447467 20.110224c0 1.149156 15.513601 90.783295 72.971382 176.969967l0.574578 1.149156c6.894934 14.939023 5.745778 31.027202-2.872889 45.391647-9.767823 15.513601-29.303469 28.154313-37.922136 30.452624-10.916978 2.872889-21.833957 4.596623-32.176358 4.596623z m-16.088178-235.576905c-41.369603 50.562848-43.667914 98.252806-41.369603 153.986855 1.723733 24.706846 9.767823 41.944181 24.132268 52.286581 14.364445 10.342401 36.198402 12.066134 60.330671 5.745778h0.574578c3.447467-1.723733 22.408535-12.066134 28.72889-27.005157 2.872889-6.894934 2.872889-13.21529-0.574577-20.110224C692.279782 343.597534 672.169558 277.521085 664.125469 245.344727z m43.093336 211.444637z m199.378502-74.120539c-16.088179 0-32.176358-3.447467-44.81707-11.491556-15.513601-10.342401-24.132268-26.43058-25.281424-47.689959 0-1.149156 0-4.596623 0.574578-9.193245l-4.022045 4.022045-1.723733 1.149156c-11.491556 5.745778-48.839114 17.811912-82.739205 5.745778-20.684801-7.469512-36.198402-22.983113-45.391648-45.391648-31.027202-66.651027-9.767823-198.803924 37.922136-235.002326l12.640712-9.767823 3.447467 15.513601c7.469512 33.900091 35.049247 127.556275 72.971382 152.263121l6.894934 5.1712c-4.596623-12.640712-5.1712-27.005157-2.298311-43.093336v-0.574578c15.513601-59.756093 132.727475-150.539388 137.898676-153.986854l13.789867-10.342401 2.298312 16.662757c0.574578 3.447467 12.640712 86.76125 0 159.158055-4.596623 31.60178-17.237334 55.15947-37.347558 68.949338-4.022045 2.872889-8.044089 5.1712-12.066135 6.894933 4.022045 0 8.044089-0.574578 12.066135-0.574578 98.827384-5.1712 131.57832-12.066134 146.517343-32.750935l34.474668-48.839114-16.662756 57.457781c-6.320356 22.408535-68.949338 107.446052-152.263121 145.368188-16.662757 5.1712-36.77298 10.342401-56.883204 10.3424z m166.627566-126.407119c-26.43058 8.044089-64.927293 11.491556-121.235919 14.364445-40.220447 1.149156-69.523916 9.767823-84.462939 25.856002-11.491556 12.066134-10.916978 24.706846-10.916978 25.281424 0.574578 14.939023 5.745778 25.281424 16.088179 31.60178 20.110224 13.21529 55.734048 9.193245 82.164627-1.149156 51.137426-22.408535 93.656184-64.927293 118.36303-95.954495z m-331.531399-183.864901c-29.878046 41.369603-45.966225 143.069876-20.110224 198.803924 7.469512 17.237334 18.961068 28.728891 33.900091 34.474669 26.43058 9.767823 56.883204 0 65.501871-4.022045 6.320356-5.745778 20.110224-27.005157 18.961068-48.264536-0.574578-14.364445-7.469512-25.281424-21.259379-33.900091-41.369603-26.43058-67.225604-109.744363-76.993427-147.091921z m116.064719 165.478411c1.149156 4.596623 2.298311 9.767823 2.298311 14.939023 0.574578 9.193245-1.149156 18.38649-3.447467 27.005157 10.916978-10.342401 25.856002-17.811912 44.81707-22.408535-2.872889-0.574578-5.1712-0.574578-6.894934-1.149155-14.939023-4.022045-27.005157-10.342401-36.77298-18.38649z m-3.447467-68.949338c-6.320356 33.900091 10.342401 58.606937 44.817069 67.225604 8.044089 1.723733 25.281424 2.298311 40.795025-8.044089 15.513601-10.342401 25.281424-29.303469 28.728891-55.15947 8.618667-50.562848 5.1712-107.446052 2.298311-135.600365-38.496714 31.027202-106.296896 92.507028-116.639296 131.57832z" fill="#43a109" p-id="22127"></path><path d="M1050.816339 836.010722c14.939023 5.1712 17.811912 9.767823 16.662756 26.430579-2.872889 44.242492-21.833957 81.59005-51.137425 113.766408-9.193245 9.767823-18.961068 18.38649-29.878047 26.43058-18.961068 13.789868-39.071291 22.408535-63.778137 21.259379-41.944181-1.723733-84.462939 0-126.40712-0.574578-8.618667 0-17.811912-1.723733-24.706846-5.1712-64.927293-33.325513-98.827384-87.910406-104.573162-160.307211-0.574578-4.596623 0.574578-10.342401 3.447467-13.21529 6.320356-6.320356 5.745778-13.21529 6.894933-20.684801 5.745778-55.15947 36.77298-90.783295 86.761251-111.468096 21.833957-9.193245 44.81707-12.640712 68.949337-9.767823 3.447467 0.574578 8.618667-1.723733 11.491557-4.022045 78.142583-59.181515 184.439479-21.833957 208.571747 73.54596 4.022045 21.259379 3.447467 42.518758-2.298311 63.778138z m-361.409446 22.408535c4.022045 45.391647 16.662757 79.866316 44.817069 110.31894 17.237334 18.38649 34.474669 31.027202 59.756093 33.325514 40.795025 4.022045 96.529073 4.596623 137.324098 1.149155 24.706846-2.298311 44.242492-16.088179 62.054404-33.900091 25.856002-25.281424 40.220447-54.010315 47.115381-89.634139 0.574578-4.022045 1.723733-16.662757 2.298311-21.259379H689.406893z m253.388816-21.259379c-0.574578-40.220447-17.811912-71.247649-51.137425-91.357873-46.540803-28.728891-95.379917-30.452624-143.069876-1.149156-33.900091 20.684801-51.712003 51.712003-52.286582 92.507029h27.005158c1.149156-52.286581 42.518758-89.634139 93.081606-91.357873 23.55769-0.574578 45.391647 6.320356 64.352715 21.259379 22.408535 17.811912 33.900091 41.369603 34.474669 70.098494h27.579735z m62.628982 0.574577c4.596623 0 7.469512-0.574578 10.342401 0 12.066134 2.298311 16.088179-3.447467 18.38649-14.364445 13.789868-77.568005-54.584892-144.219032-132.152898-128.130853-12.066134 2.298311-23.55769 8.044089-37.347558 12.640712 22.983113 12.066134 22.983113 12.066134 43.667914 7.469512 34.474669-6.894934 72.396805 9.767823 90.783295 40.795025 14.939023 25.856002 16.662757 52.286581 6.320356 81.590049z m-110.31894-0.574577c-1.149156-28.728891-14.364445-48.839114-38.496714-60.330671-30.452624-14.939023-60.330671-12.066134-87.335828 8.618667-16.662757 12.640712-25.856002 29.878046-24.706846 51.712004 17.811912 1.723733 16.662757 1.149156 22.983112-12.640712 3.447467-8.044089 9.193245-15.513601 15.513602-21.25938 25.281424-22.408535 83.888361-17.237334 91.93245 34.474669 5.745778-0.574578 12.066134-0.574578 20.110224-0.574577z m67.800182 0c20.684801 2.298311 22.408535 1.149156 27.005157-17.811913 8.044089-31.60178-8.044089-64.352715-38.496713-77.568005-10.916978-4.596623-21.833957-7.469512-35.049247-4.022045 29.878046 27.005157 45.966225 59.181515 46.540803 99.401963z m-111.468096 0.574577c0.574578-14.939023-12.640712-26.43058-31.60178-27.005157-18.38649-0.574578-33.325513 10.916978-34.474669 27.005157H851.437837z" fill="#e6e6e6" p-id="22128"></path></svg>