<?xml version="1.0" standalone="no"?><!DOCTYPE svg PUBLIC "-//W3C//DTD SVG 1.1//EN" "http://www.w3.org/Graphics/SVG/1.1/DTD/svg11.dtd"><svg t="1629088478554" class="icon" viewBox="0 0 1024 1024" version="1.1" xmlns="http://www.w3.org/2000/svg" p-id="10399" xmlns:xlink="http://www.w3.org/1999/xlink" width="200" height="200"><defs><style type="text/css"></style></defs><path d="M485.892351 945.677054v37.711048c5.8017 26.107649 2.90085 40.611898-2.90085 40.611898h-26.107648c-5.8017 0-23.206799-8.70255-23.206799-14.504249V994.991501c0-2.90085 11.603399-23.206799 14.504249-29.008498 2.90085-5.8017 0-14.504249-2.90085-23.206799-2.90085-8.70255 0-34.810198 0-40.611898 0-5.8017-14.504249-66.719547-14.504249-81.223796v-52.215298c0-8.70255 5.8017-20.305949 5.8017-26.107648s2.90085-55.116147 2.90085-63.818697c0-5.8017-14.504249-49.314448-14.50425-89.926346 0-40.611898 2.90085-113.133144 17.405099-156.645892 2.90085-52.215297 2.90085-81.223796 2.90085-87.025496 0-5.8017-8.70255-37.711048-8.702549-52.215297-5.8017 26.107649-11.603399 43.512748-23.206799 52.215297 0 20.305949-14.504249 49.314448-40.611898 87.025496-20.305949 26.107649-31.909348 43.512748-34.810199 58.016997 0 14.504249-5.8017 26.107649-20.305949 43.512748-8.70255 20.305949-14.504249 31.909348-17.405099 31.909348-2.90085 2.90085-5.8017 2.90085-11.603399 2.90085-5.8017 8.70255-11.603399 11.603399-17.405099 8.70255-8.70255 2.90085-11.603399 0-11.6034-8.70255-5.8017 0-5.8017-5.8017-2.90085-11.603399 2.90085-8.70255 8.70255-14.504249 11.6034-23.206799-5.8017 0-5.8017-2.90085-5.8017-5.8017 0-5.8017 11.603399-8.70255 14.504249-17.405099 5.8017-5.8017 17.405099-23.206799 23.206799-34.810198 5.8017-11.603399 29.008499-46.413598 31.909349-58.016997 2.90085-11.603399 5.8017-40.611898 37.711048-87.025496-2.90085-29.008499 2.90085-52.215297 11.603399-69.620397 2.90085-40.611898 8.70255-66.719547 20.305949-78.322946 11.603399-11.603399 26.107649-17.405099 46.413598-17.405099 17.405099-5.8017 29.008499-14.504249 40.611898-26.107649v-26.107649c-2.90085-2.90085-5.8017-8.70255-5.8017-20.305949-8.70255-5.8017-11.603399-14.504249-8.702549-31.909348 0-2.90085 2.90085-2.90085 8.702549 0V29.008499c0-5.8017 5.8017-29.008499 37.711049-29.008499s40.611898 26.107649 40.611898 29.008499v31.909348c2.90085-2.90085 5.8017-2.90085 8.702549 0 2.90085 2.90085 2.90085 17.405099-8.702549 31.909348-2.90085 8.70255-2.90085 14.504249-8.70255 20.305949v26.107649c11.603399 11.603399 23.206799 23.206799 40.611898 26.107649 20.305949 0 34.810198 5.8017 46.413598 17.405099 14.504249 17.405099 20.305949 31.909348 20.305949 72.521247 11.603399 26.107649 14.504249 52.215297 11.603399 72.521246 20.305949 31.909348 31.909348 60.917847 37.711048 87.025496 17.405099 31.909348 26.107649 49.314448 29.008499 55.116147 2.90085 5.8017 23.206799 20.305949 29.008499 40.611898 8.70255 8.70255 11.603399 14.504249 11.603399 14.504249 0 2.90085-2.90085 5.8017-8.70255 2.90085l14.50425 23.206799c0 5.8017 0 8.70255-2.90085 11.6034 0 8.70255-2.90085 14.504249-11.6034 11.603399-5.8017 2.90085-8.70255 2.90085-11.603399 0-2.90085-2.90085-5.8017-5.8017-8.70255-11.603399-5.8017 2.90085-8.70255 2.90085-11.603399 0-2.90085-5.8017-17.405099-31.909348-29.008499-52.215298-2.90085-5.8017-2.90085-14.504249-5.801699-20.305949 0-8.70255-5.8017-17.405099-14.50425-31.909348-14.504249-20.305949-26.107649-37.711048-31.909348-46.413598-8.70255-14.504249-26.107649-40.611898-26.107649-66.719547-14.504249-31.909348-20.305949-49.314448-23.206799-55.116147-2.90085 26.107649-5.8017 43.512748-8.702549 49.314447 0 52.215297 0 81.223796 2.90085 84.124646 0 8.70255 34.810198 89.926346 5.801699 240.770539-2.90085 8.70255-2.90085 31.909348 0 72.521246 11.603399 37.711048 8.70255 78.322946-2.90085 121.835694-5.8017 23.206799-8.70255 40.611898-8.702549 55.116147 0 20.305949 0 34.810198-2.90085 40.611898 8.70255 20.305949 14.504249 31.909348 17.405099 37.711049 2.90085 8.70255 2.90085 14.504249-20.305949 26.107648h-26.107649c-5.8017 0-5.8017-5.8017-5.801699-23.206799 2.90085-17.405099 0-46.413598 0-52.215297 0-5.8017 5.8017-8.70255 5.801699-34.810198v-29.008499c0-5.8017-11.603399-34.810198-11.603399-58.016997s5.8017-60.917847 5.8017-75.422096c-5.8017-8.70255-11.603399-26.107649-14.50425-49.314448-5.8017-11.603399-5.8017-29.008499-5.801699-52.215297-8.70255-46.413598-11.603399-69.620397-17.405099-69.620397-5.8017 0-8.70255 52.215297-17.4051 69.620397 0 26.107649-2.90085 40.611898-5.801699 49.314447-2.90085 23.206799-5.8017 40.611898-11.6034 49.314448-2.90085 5.8017-2.90085 17.405099 0 31.909348 5.8017 31.909348 5.8017 66.719547-8.702549 101.529745-2.90085 11.603399 0 31.909348 0 58.016997 5.8017 2.90085 5.8017 5.8017 8.702549 11.6034z m0 0" fill="#1296db" p-id="10400"></path></svg>