<?xml version="1.0" standalone="no"?><!DOCTYPE svg PUBLIC "-//W3C//DTD SVG 1.1//EN" "http://www.w3.org/Graphics/SVG/1.1/DTD/svg11.dtd"><svg t="1629090174451" class="icon" viewBox="0 0 1024 1024" version="1.1" xmlns="http://www.w3.org/2000/svg" p-id="14127" xmlns:xlink="http://www.w3.org/1999/xlink" width="200" height="200"><defs><style type="text/css"></style></defs><path d="M512 512m-511.862 0a511.862 511.862 0 1 0 1023.724 0 511.862 511.862 0 1 0-1023.724 0Z" fill="#323653" p-id="14128"></path><path d="M788.086 330.21l-32.152 20.134-25.836-25.838-13.55 10.876-14.676-14.676-23.408 19.022 43.014 43.012-178.898-87.864 110.648 110.652-324.798-24.586-212.558-31.768 214.798 214.798-12.342 33.406 93.136 93.136-121.06-50.162 102.024 102.026-123.256 36.952 81.834 81.834-7.206 11.098 151.422 151.422c219.934 7.292 427.88-128.888 501.808-348.138a513.408 513.408 0 0 0 24.328-112.06L788.086 330.21z" opacity=".1" p-id="14129"></path><path d="M368.798 160.89c-4.99 1.864-10.668-0.386-12.676-5.022-2.008-4.634 0.41-9.902 5.404-11.766 4.992-1.864 10.67 0.382 12.672 5.014 2.012 4.638-0.406 9.908-5.4 11.774z" fill="#E3DFF0" p-id="14130"></path><path d="M386.374 144.578l-21.988 6.126-20.432 9.712 21.986-6.13z" fill="#E3DFF0" p-id="14131"></path><path d="M356.632 132.802l6.6 20.414 10.46 18.968-6.602-20.41zM525.818 951.832c-4.988 1.866-10.666-0.384-12.674-5.02-2.008-4.636 0.41-9.904 5.404-11.768 4.992-1.864 10.672 0.382 12.674 5.014 2.008 4.638-0.412 9.908-5.404 11.774z" fill="#E3DFF0" p-id="14132"></path><path d="M543.394 935.518l-21.986 6.126-20.434 9.714 21.986-6.132z" fill="#E3DFF0" p-id="14133"></path><path d="M513.652 923.744l6.6 20.412 10.46 18.97-6.602-20.412z" fill="#E3DFF0" p-id="14134"></path><path d="M269.174 489.732c-4.99 1.866-10.666-0.384-12.676-5.02-2.008-4.636 0.41-9.904 5.404-11.766 4.992-1.864 10.67 0.382 12.674 5.014 2.01 4.634-0.41 9.908-5.402 11.772z" fill="#E3DFF0" p-id="14135"></path><path d="M286.75 473.418l-21.986 6.126-20.434 9.712 21.986-6.13z" fill="#E3DFF0" p-id="14136"></path><path d="M257.008 461.644l6.6 20.412 10.462 18.97-6.604-20.41z" fill="#E3DFF0" p-id="14137"></path><path d="M925.998 508.52c-7.486 2.798-16.004-0.578-19.02-7.534-3.014-6.956 0.616-14.862 8.11-17.656 7.492-2.796 16.014 0.574 19.018 7.524 3.016 6.956-0.616 14.868-8.108 17.666z" fill="#E3DFF0" p-id="14138"></path><path d="M952.374 484.04l-32.996 9.194-30.66 14.572 32.99-9.198z" fill="#E3DFF0" p-id="14139"></path><path d="M907.744 466.374l9.902 30.626 15.698 28.464-9.908-30.624z" fill="#E3DFF0" p-id="14140"></path><path d="M519.604 76.316c-12.266 4.584-26.228-0.946-31.164-12.342-4.936-11.392 1.01-24.348 13.286-28.926 12.274-4.582 26.236 0.94 31.16 12.326 4.938 11.4-1.006 24.356-13.282 28.942z" fill="#E3DFF0" p-id="14141"></path><path d="M562.81 36.21l-54.054 15.062-50.234 23.876 54.052-15.066z" fill="#E3DFF0" p-id="14142"></path><path d="M489.694 7.264l16.226 50.184 25.716 46.636-16.23-50.18z" fill="#E3DFF0" p-id="14143"></path><path d="M63.774 684.876c-4.674 1.748-9.992-0.36-11.872-4.698-1.88-4.342 0.386-9.276 5.06-11.024 4.676-1.746 9.992 0.36 11.872 4.7 1.886 4.344-0.382 9.278-5.06 11.022z" fill="#E3DFF0" p-id="14144"></path><path d="M80.234 669.6l-20.59 5.738-19.14 9.096 20.592-5.738z" fill="#E3DFF0" p-id="14145"></path><path d="M52.38 658.574l6.182 19.118 9.796 17.766-6.182-19.116z" fill="#E3DFF0" p-id="14146"></path><path d="M721.626 306.604c-6.972 2.602-14.906-0.536-17.71-7.012-2.806-6.474 0.576-13.836 7.548-16.44 6.978-2.608 14.908 0.534 17.712 7.006 2.804 6.478-0.574 13.84-7.55 16.446z" fill="#E3DFF0" p-id="14147"></path><path d="M746.178 283.812l-30.72 8.562-28.546 13.566 30.714-8.562z" fill="#E3DFF0" p-id="14148"></path><path d="M704.628 267.362l9.22 28.52 14.614 26.502-9.224-28.514z" fill="#E3DFF0" p-id="14149"></path><path d="M555.318 728.238c-12.486 16.856-36.282 20.4-53.138 7.912l-175.166-129.77c-16.86-12.488-20.4-36.282-7.912-53.138l177.206-239.202c12.492-16.86 36.282-20.402 53.142-7.91l175.162 129.766c16.86 12.492 20.402 36.282 7.912 53.14l-177.206 239.202z" fill="#D0E6F0" p-id="14150"></path><path d="M498.746 775.596a15.992 15.992 0 0 1-22.374 3.332l-182.76-135.396a15.996 15.996 0 0 1-3.332-22.374l3.968-5.358a15.996 15.996 0 0 1 22.374-3.33l182.76 135.394a16 16 0 0 1 3.332 22.376l-3.968 5.356zM756.592 427.548a15.996 15.996 0 0 0-3.334-22.374l-182.756-135.396a16 16 0 0 0-22.378 3.332l-3.962 5.352a15.998 15.998 0 0 0 3.326 22.378l182.762 135.396a16 16 0 0 0 22.376-3.334l3.966-5.354z" fill="#4FA690" p-id="14151"></path><path d="M772.728 315.826l-33.414 45.102-23.188-17.178 15.062-20.336-6.716-4.97-15.058 20.328-13.428-9.944 6.404-8.644-6.1-4.52-6.406 8.644-5.71 7.712-5.712 7.708 49.428 36.62 17.088 12.656 11.42-15.42 33.414-45.102z" fill="#D0E6F0" p-id="14152"></path><path d="M534.342 593.014c-5.952 8.038-17.292 9.722-25.326 3.772l-49.678-36.802a18.106 18.106 0 0 1-3.77-25.328l75.446-101.838a18.108 18.108 0 0 1 25.328-3.772l49.678 36.802a18.106 18.106 0 0 1 3.77 25.326l-75.448 101.84z" fill="#52919D" opacity=".2" p-id="14153"></path><path d="M534.148 583.676a15.992 15.992 0 0 1-22.374 3.332l-43.886-32.512a16 16 0 0 1-3.334-22.376l66.654-89.97a15.998 15.998 0 0 1 22.376-3.33l43.886 32.514a15.996 15.996 0 0 1 3.332 22.374l-66.654 89.968z" fill="#77CFE0" opacity=".2" p-id="14154"></path><path d="M724.616 435.898l-85.458-63.308L416.722 672.84l85.458 63.31c16.856 12.488 40.652 8.944 53.138-7.912l177.208-239.202c12.492-16.858 8.948-40.646-7.91-53.138zM753.258 405.176l-89.254-66.124-23.01 31.06 89.254 66.126a16 16 0 0 0 22.376-3.334l3.966-5.354a15.994 15.994 0 0 0-3.332-22.374zM499.38 747.866l-89.256-66.124-23.01 31.058 89.258 66.126a15.992 15.992 0 0 0 22.374-3.332l3.966-5.354a15.994 15.994 0 0 0-3.332-22.374z" opacity=".1" p-id="14155"></path><path d="M440.164 800.446c-9.594-35.404-39.744-63.256-78.4-68.03-38.652-4.772-74.672 14.906-92.592 46.914l170.992 21.116z" fill="#D0E6F0" p-id="14156"></path><path d="M331.508 685.464l11.36 62.138a11.298 11.298 0 0 0 7.618 8.716 11.24 11.24 0 0 0 5.552 0.378l62.138-11.36a11.32 11.32 0 0 0 9.096-13.174 11.314 11.314 0 0 0-13.168-9.094l-51.004 9.32-9.326-51.002a11.318 11.318 0 0 0-22.266 4.078z" fill="#666666" p-id="14157"></path><path d="M355.832 743.132m-4.606 0a4.606 4.606 0 1 0 9.212 0 4.606 4.606 0 1 0-9.212 0Z" fill="#4D4D4D" p-id="14158"></path><path d="M355.116 739.208l0 0zM342 792.158l5.104 66.284a7.582 7.582 0 0 0-5.242 3.198 7.634 7.634 0 1 0 10.616-1.944 7.776 7.776 0 0 0-1.694-0.852l22.762-62.352L342 792.158z" fill="#D0E6F0" p-id="14159"></path><path d="M667.63 506.556l256.512 190.046-120.254 162.312-256.512-190.046z" fill="#52919D" p-id="14160"></path><path d="M668.916 515.428l247.41 183.3-112.68 152.088-247.408-183.302z" fill="#77CFE0" p-id="14161"></path><path d="M558.434 664.588l0.434 4.854 59.2 43.858 283.798-25.316-82.61-61.202-249.292 22.24zM654.764 740.488l246.972-22.036 10.614-14.326-273.708 24.416z" fill="#F2F2F2" opacity=".7" p-id="14162"></path><path d="M616.144 586.65l247.412 183.304-3.57 4.816-247.41-183.3z" fill="#52919D" p-id="14163"></path><path d="M797.14 602.488l3.52 2.604-118.79 160.458-3.52-2.606z" fill="#52919D" p-id="14164"></path><path d="M236.112 186.854l256.514 190.046-120.254 162.314-256.516-190.048z" fill="#52919D" p-id="14165"></path><path d="M237.392 195.722l247.41 183.3-112.68 152.09-247.41-183.3z" fill="#77CFE0" p-id="14166"></path><path d="M126.898 344.888l0.436 4.856 59.196 43.858 283.8-25.32-82.61-61.198-249.292 22.242zM223.228 420.79l246.974-22.034 10.614-14.328-273.708 24.418z" fill="#F2F2F2" opacity=".7" p-id="14167"></path><path d="M184.626 266.948l247.412 183.304-3.57 4.82-247.412-183.304z" fill="#52919D" p-id="14168"></path><path d="M365.684 282.826l3.52 2.608-118.89 160.376-3.52-2.608z" fill="#52919D" p-id="14169"></path></svg>