<?xml version="1.0" standalone="no"?><!DOCTYPE svg PUBLIC "-//W3C//DTD SVG 1.1//EN" "http://www.w3.org/Graphics/SVG/1.1/DTD/svg11.dtd"><svg t="1629089962790" class="icon" viewBox="0 0 1024 1024" version="1.1" xmlns="http://www.w3.org/2000/svg" p-id="13191" xmlns:xlink="http://www.w3.org/1999/xlink" width="200" height="200"><defs><style type="text/css"></style></defs><path d="M224.3 274.2c16.7-29 26.4-42.7 42.8-42.7s26 13.7 42.8 42.7c8.3 14.4 16.9 29.3 28.6 41.4 15.2 15.8 33 23.8 53.2 23.8 20.1 0 38-8 53.2-23.8 11.6-12.1 20.2-27 28.6-41.4 16.7-29 26.4-42.7 42.8-42.7s26 13.7 42.8 42.7c8.3 14.4 16.9 29.3 28.6 41.4 15.2 15.8 33 23.8 53.2 23.8 20.1 0 38-8 53.2-23.8 11.6-12.1 20.2-27 28.6-41.4 16.7-29 26.4-42.7 42.8-42.7s26 13.7 42.8 42.7c4.6 8 13.3 20.2 19.9 28.6 2.9 3.7 8.8 1.6 8.8-3v-63.5c0-0.9-0.3-1.9-0.8-2.7-2.7-4.2-11.5-17.1-17.5-23.3-15.2-15.8-33-23.8-53.2-23.8-20.1 0-38 8-53.2 23.8-11.6 12.1-20.2 27-28.6 41.4-16.7 29-26.4 42.7-42.8 42.7s-26-13.7-42.8-42.7c-8.3-14.4-16.9-29.3-28.6-41.4-15.2-15.8-33-23.8-53.2-23.8-20.1 0-38 8-53.2 23.8-11.6 12.1-20.2 27-28.6 41.4-16.7 29-26.4 42.7-42.8 42.7s-26-13.7-42.8-42.7c-8.3-14.4-16.9-29.3-28.6-41.4-15.2-15.8-33-23.8-53.2-23.8s-38 8-53.2 23.8c-9.3 9.7-22.7 31.8-25.8 37.1-0.5 0.8-0.7 1.6-0.7 2.5v62.2c0 4.1 4.9 6.5 8 3.8l0.3-0.3c11.7-12.1 20.3-27 28.6-41.4z" fill="#2f4bb4" p-id="13192"></path><path d="M762.7 435.6c-20.1 0-38 8-53.2 23.8-11.6 12.1-20.2 27-28.6 41.4-16.7 29-26.4 42.7-42.8 42.7s-26-13.7-42.8-42.7c-8.3-14.4-16.9-29.3-28.6-41.4-15.2-15.8-33-23.8-53.2-23.8-20.1 0-38 8-53.2 23.8-11.6 12.1-20.2 27-28.6 41.4-16.7 29-26.4 42.7-42.8 42.7s-26-13.7-42.8-42.7c-8.3-14.4-16.9-29.3-28.6-41.4-15.2-15.8-33-23.8-53.2-23.8s-38 8-53.2 23.8c-8.4 8.7-20.9 28.9-23.6 33.3-0.3 0.6-0.5 1.2-0.5 1.9V562c0 2.9 3.4 4.8 5.7 3 0.1-0.1 0.2-0.1 0.2-0.2 11.6-12.1 20.2-27 28.6-41.4 16.7-29 26.4-42.7 42.8-42.7s26 13.7 42.8 42.7c8.3 14.4 16.9 29.3 28.6 41.4 15.2 15.8 33 23.8 53.2 23.8 20.1 0 38-8 53.2-23.8 11.6-12.1 20.2-27 28.6-41.4 16.7-29 26.4-42.7 42.8-42.7s26 13.7 42.8 42.7c8.3 14.4 16.9 29.3 28.6 41.4 15.2 15.8 33 23.8 53.2 23.8 20.1 0 38-8 53.2-23.8 11.6-12.1 20.2-27 28.6-41.4 16.7-29 26.4-42.7 42.8-42.7s23.8 15.1 42.8 42.7c7.7 11.2 17.5 23.8 24.1 33 2 2.8 6.5 1.4 6.6-2l0.3-64.2c0-0.7-0.2-1.4-0.5-2-2.7-4.3-14-22.3-20.1-28.6-15.2-16-33.1-24-53.2-24z" fill="#00EAFF" p-id="13193"></path><path d="M762.7 684.6c-20.1 0-38 8-53.2 23.8-11.6 12.1-20.2 27-28.6 41.4-16.7 29-26.4 42.7-42.8 42.7s-26-13.7-42.8-42.7c-8.3-14.4-16.9-29.3-28.6-41.4-15.2-15.8-33-23.8-53.2-23.8-20.1 0-38 8-53.2 23.8-11.6 12.1-20.2 27-28.6 41.4-16.7 29-26.4 42.7-42.8 42.7s-26-13.7-42.8-42.7c-8.3-14.4-16.9-29.3-28.6-41.4-15.2-15.8-33-23.8-53.2-23.8s-38 8-53.2 23.8c-8.4 8.7-20.9 28.9-23.6 33.3-0.3 0.6-0.5 1.2-0.5 1.9V811c0 2.9 3.4 4.8 5.7 3 0.1-0.1 0.2-0.1 0.2-0.2 11.6-12.1 20.2-27 28.6-41.4 16.7-29 26.4-42.7 42.8-42.7s26 13.7 42.8 42.7c8.3 14.4 16.9 29.3 28.6 41.4 15.2 15.8 33 23.8 53.2 23.8 20.1 0 38-8 53.2-23.8 11.6-12.1 20.2-27 28.6-41.4 16.7-29 26.4-42.7 42.8-42.7s26 13.7 42.8 42.7c8.3 14.4 16.9 29.3 28.6 41.4 15.2 15.8 33 23.8 53.2 23.8 20.1 0 38-8 53.2-23.8 11.6-12.1 20.2-27 28.6-41.4 16.7-29 26.4-42.7 42.8-42.7s26 13.7 42.8 42.7c5.5 9.5 17.3 24.1 24.7 32.9 2.2 2.6 6.4 1.1 6.4-2.3v-64.9c0-0.7-0.2-1.4-0.6-2-2.6-4-13.2-20.3-20.1-27.6-15.2-15.9-33.1-23.9-53.2-23.9z" fill="#2f4bb4" p-id="13194"></path></svg>