<?xml version="1.0" standalone="no"?><!DOCTYPE svg PUBLIC "-//W3C//DTD SVG 1.1//EN" "http://www.w3.org/Graphics/SVG/1.1/DTD/svg11.dtd"><svg t="1629084573239" class="icon" viewBox="0 0 1024 1024" version="1.1" xmlns="http://www.w3.org/2000/svg" p-id="7847" xmlns:xlink="http://www.w3.org/1999/xlink" width="200" height="200"><defs><style type="text/css"></style></defs><path d="M467.079 732.994m-125.751 0a125.751 125.751 0 1 0 251.502 0 125.751 125.751 0 1 0-251.502 0Z" fill="#689F38" p-id="7848"></path><path d="M511.979 511.712m-448.61 0a448.61 448.61 0 1 0 897.22 0 448.61 448.61 0 1 0-897.22 0Z" fill="#E6FFE7" p-id="7849"></path><path d="M546 383h127v79H546z" fill="#B3E5FC" p-id="7850"></path><path d="M546 407.27v37.911c6 0 11-5.166 11-11.538v-14.835c0-6.372-5-11.538-11-11.538zM673 407.27v37.911c-7 0-12-5.166-12-11.538v-14.835c0-6.372 5-11.538 12-11.538zM620 432.5c0 6.351-5.149 11.5-11.5 11.5s-11.5-5.149-11.5-11.5v-15c0-6.351 5.149-11.5 11.5-11.5s11.5 5.149 11.5 11.5v15z" fill="#0288D1" p-id="7851"></path><path d="M527.372 384h163.38c-39.129 0-74.293-64.284-81.844-79.119-0.001 0-42.407 79.119-81.536 79.119z" fill="#00B0FF" p-id="7852"></path><path d="M534 430h152v17H534z" fill="#0078D9" p-id="7853"></path><path d="M546 485h127v79H546z" fill="#B3E5FC" p-id="7854"></path><path d="M546 509.465v37.911c6 0 11-5.166 11-11.538v-14.835c0-6.372-5-11.538-11-11.538zM673 509.465v37.911c-7 0-12-5.166-12-11.538v-14.835c0-6.372 5-11.538 12-11.538zM620 534.5c0 6.351-5.149 11.5-11.5 11.5s-11.5-5.149-11.5-11.5v-15c0-6.351 5.149-11.5 11.5-11.5s11.5 5.149 11.5 11.5v15z" fill="#0288D1" p-id="7855"></path><path d="M534 532h152v17H534z" fill="#0078D9" p-id="7856"></path><path d="M546 585h127v79H546z" fill="#B3E5FC" p-id="7857"></path><path d="M546 610.012v37.911c6 0 11-5.166 11-11.538V621.55c0-6.373-5-11.538-11-11.538zM673 610.012v37.911c-7 0-12-5.166-12-11.538V621.55c0-6.373 5-11.538 12-11.538zM620 634.5c0 6.351-5.149 11.5-11.5 11.5s-11.5-5.149-11.5-11.5v-15c0-6.351 5.149-11.5 11.5-11.5s11.5 5.149 11.5 11.5v15z" fill="#0288D1" p-id="7858"></path><path d="M534 635h152v15H534z" fill="#0078D9" p-id="7859"></path><path d="M678.703 664H540.657s-10.302 25-25.137 25H703.838c-14.834 0-25.135-25-25.135-25zM680.351 564H542.305s-10.302 25-25.137 25H705.486c-14.833 0-25.135-25-25.135-25zM678.703 462H540.657s-10.302 24-25.137 24H703.838c-14.834 0-25.135-24-25.135-24z" fill="#00B0FF" p-id="7860"></path><path d="M610 308v-77" fill="#0078D9" p-id="7861"></path><path d="M609 312.194c-0.91 0-2-0.738-2-1.648v-77.47c0-0.91 1.09-1.648 2-1.648s2 0.738 2 1.648v77.47c0 0.91-1.09 1.648-2 1.648z" fill="#00B0FF" p-id="7862"></path><path d="M616 285.222a6.778 6.778 0 0 1-6.778 6.778h-0.445a6.778 6.778 0 0 1-6.778-6.778v-7.445a6.778 6.778 0 0 1 6.778-6.778h0.445a6.778 6.778 0 0 1 6.778 6.778v7.445z" fill="#FADD60" p-id="7863"></path><path d="M609.062 258.972m-4.181 0a4.181 4.181 0 1 0 8.362 0 4.181 4.181 0 1 0-8.362 0Z" fill="#FADD60" p-id="7864"></path><path d="M883.463 691c-22.101-36-61.895-60.178-107.317-60.178S690.93 655 668.829 691h214.634z" fill="#7EC244" p-id="7865"></path><path d="M735.293 580.342c-27.803 0-53.146 10.516-72.284 27.78a77.257 77.257 0 0 0-9.307-0.583c-42.331 0-76.646 34.316-76.646 76.646 0 42.331 34.316 76.646 76.646 76.646 0.53 0 1.054-0.029 1.582-0.04 19.753 21.79 48.282 35.479 80.01 35.479 59.627 0 107.964-48.337 107.964-107.964-0.001-59.627-48.338-107.964-107.965-107.964z" fill="#BBE68B" p-id="7866"></path><path d="M282.469 670.359m-125.751 0a125.751 125.751 0 1 0 251.502 0 125.751 125.751 0 1 0-251.502 0Z" fill="#9EDE54" p-id="7867"></path><path d="M318.018 654.306c17.733 0 32.323 13.694 34.143 30.694h19.519c0.017-30 24.517-54.708 54.738-54.708S481.139 655 481.156 685h16.058c1.819-17 16.41-30.694 34.143-30.694S563.68 668 565.5 685h33.13c-25.935-48-94.556-82.025-175.137-82.025S274.29 637 248.355 685h35.521c1.819-17 16.41-30.694 34.142-30.694z" fill="#FFFFFF" p-id="7868"></path><path d="M279 661a4 4 0 0 1-8 0v-29a4 4 0 0 1 8 0v29zM324 629a4 4 0 0 1-8 0v-29a4 4 0 0 1 8 0v29zM372 613a4 4 0 0 1-8 0v-29a4 4 0 0 1 8 0v29zM428 609a4 4 0 0 1-8 0v-29a4 4 0 0 1 8 0v29zM480 618a4 4 0 0 1-8 0v-29a4 4 0 0 1 8 0v29zM532 636a4 4 0 0 1-8 0v-29a4 4 0 0 1 8 0v29zM579 666a4 4 0 0 1-8 0v-29a4 4 0 0 1 8 0v29z" fill="#FFFFFF" p-id="7869"></path><path d="M203.578 679.24m-76.646 0a76.646 76.646 0 1 0 153.292 0 76.646 76.646 0 1 0-153.292 0Z" fill="#B9E389" p-id="7870"></path><path d="M988.687 685H20.141C13.436 685 8 690.635 8 697.34v0.335C8 704.38 13.436 710 20.141 710h35.875c6.705 0 12.141 4.144 12.141 11.833S62.722 734 56.016 734H43.373C36.667 734 31 739.867 31 746.572v0.335C31 753.612 36.667 759 43.373 759h90.957c6.705 0 12.085 3.862 12.085 10.567S140.732 781 134.027 781H99.442C92.737 781 87 786.363 87 793.068v0.335C87 800.108 92.737 806 99.442 806h27.278c6.705 0 12.141 5.295 12.141 12s-5.435 12-12.141 12h-13.602c-6.705 0-12.118 5.595-12.118 12.3v0.335c0 6.705 5.413 12.365 12.118 12.365h80.77c6.705 0 12.141 5.295 12.141 12s-5.435 12-12.141 12h-23.333C163.85 879 158 884.827 158 891.532v0.335c0 6.705 5.85 12.133 12.555 12.133h80.175c6.705 0 12.141 4.795 12.141 11.5S257.435 927 250.73 927H240.3c-6.705 0-12.3 5.692-12.3 12.397v0.335c0 6.705 5.595 12.268 12.3 12.268h504.962c6.705 0 11.738-5.563 11.738-12.268v-0.335c0-6.705-5.033-12.397-11.738-12.397h-26.223c-6.705 0-12.141-4.795-12.141-11.5s5.436-11.5 12.141-11.5h102.805c6.705 0 12.155-5.428 12.155-12.133v-0.335c0-6.705-5.45-12.532-12.155-12.532h-41.787c-6.705 0-12.141-5.295-12.141-12s5.436-12 12.141-12H857.4c6.705 0 12.598-5.66 12.598-12.365v-0.335c0-6.705-5.893-12.3-12.598-12.3h-19.822c-6.705 0-12.067-4.149-12.067-10.854 0-6.705 5.301-12.146 12.006-12.146h118.347c6.705 0 12.135-5.524 12.135-12.229v-0.335c0-6.705-5.43-12.436-12.135-12.436h-36.94c-6.705 0-12.141-4.795-12.141-11.5s5.436-11.5 12.141-11.5h58.82c6.705 0 12.254-5.388 12.254-12.094v-0.335c0-6.705-5.549-12.572-12.254-12.572h-46.831c-6.705 0-12.141-4.486-12.141-11.833S924.21 710 930.915 710h57.772c6.705 0 12.313-5.62 12.313-12.326v-0.335c0-6.704-5.608-12.339-12.313-12.339z" fill="#BBEBE6" p-id="7871"></path><path d="M89 842.141C89 835.435 83.564 830 76.859 830H50.141C43.436 830 38 835.435 38 842.141v0.719c0 6.705 5.436 12.14 12.141 12.14H76.86c6.704 0 12.14-5.435 12.14-12.141v-0.718zM214 939.141c0-6.705-5.436-12.141-12.141-12.141H175.14c-6.705 0-12.141 5.435-12.141 12.141v0.719c0 6.705 5.436 12.141 12.141 12.141h26.719c6.705 0 12.141-5.435 12.141-12.141v-0.719zM904 891.141c0-6.705-5.436-12.141-12.141-12.141H865.14c-6.705 0-12.141 5.435-12.141 12.141v0.719c0 6.705 5.436 12.141 12.141 12.141h26.719c6.705 0 12.141-5.435 12.141-12.141v-0.719zM910 842.141c0-6.705-5.436-12.141-12.141-12.141h-6.719c-6.705 0-12.141 5.435-12.141 12.141v0.719c0 6.705 5.436 12.141 12.141 12.141h6.719c6.705 0 12.141-5.435 12.141-12.141v-0.719z" fill="#B2DFDB" p-id="7872"></path><path d="M335.513 774H232.946c-1.888 0-3.419-1.235-3.419-3.5s1.531-3.5 3.419-3.5h102.566c1.888 0 3.419 1.278 3.419 3.5s-1.53 3.5-3.418 3.5zM331.41 730h-31.454c-1.888 0-3.419-1.235-3.419-3.5s1.531-3.5 3.419-3.5h31.454c1.888 0 3.419 1.278 3.419 3.5s-1.531 3.5-3.419 3.5zM622.699 899h-31.454c-1.888 0-3.419-1.235-3.419-3.5s1.531-3.5 3.419-3.5h31.454c1.888 0 3.419 1.278 3.419 3.5s-1.531 3.5-3.419 3.5zM401.155 774h-25.984c-1.888 0-3.419-1.235-3.419-3.5s1.531-3.5 3.419-3.5h25.984c1.888 0 3.419 1.278 3.419 3.5s-1.531 3.5-3.419 3.5zM507.824 830h-61.54c-1.888 0-3.419-1.235-3.419-3.5s1.531-3.5 3.419-3.5h61.54c1.888 0 3.419 1.278 3.419 3.5s-1.531 3.5-3.419 3.5zM573.467 830h-25.984c-1.888 0-3.419-1.235-3.419-3.5s1.531-3.5 3.419-3.5h25.984c1.888 0 3.419 1.278 3.419 3.5s-1.531 3.5-3.419 3.5zM364.231 830h-9.573c-1.888 0-3.419-1.235-3.419-3.5s1.531-3.5 3.419-3.5h9.573c1.888 0 3.419 1.278 3.419 3.5s-1.531 3.5-3.419 3.5zM696.547 741h-61.54c-1.888 0-3.419-1.235-3.419-3.5s1.531-3.5 3.419-3.5h61.54c1.888 0 3.419 1.278 3.419 3.5s-1.531 3.5-3.419 3.5zM778.6 741h-25.984c-1.888 0-3.419-1.235-3.419-3.5s1.531-3.5 3.419-3.5H778.6c1.888 0 3.419 1.278 3.419 3.5s-1.531 3.5-3.419 3.5zM611.758 741h-9.573c-1.888 0-3.419-1.235-3.419-3.5s1.531-3.5 3.419-3.5h9.573c1.888 0 3.419 1.278 3.419 3.5s-1.53 3.5-3.419 3.5z" fill="#FFFFFF" p-id="7873"></path><path d="M477 838v4M477 843a2 2 0 1 1-4 0v-4a2 2 0 1 1 4 0v4z" fill="#FEF8E2" p-id="7874"></path><path d="M483 850.417c0 3.749-3.251 6.788-7 6.788s-7-3.039-7-6.788v-4.525c0-3.749 2.927-5.732 6.547-5.732 4.525 0 7.453 1.983 7.453 5.732v4.525z" fill="#EEEEEE" p-id="7875"></path><path d="M343.897 851l12.282 19.873s16.416 8.51 69.144 8.51c52.548 0 64.038-7.993 64.038-7.993L504.568 851H343.897z" fill="#BD9F95" p-id="7876"></path><path d="M342 848.964s75.59 1.624 81.231 1.624c5.641 0 82.769-1.453 82.769-1.453v2.906s-74.949 1.88-82 1.88-82-2.479-82-2.479v-2.478z" fill="#B5806D" p-id="7877"></path><path d="M478 836.011a3.99 3.99 0 0 1-3.989 3.989h-0.023a3.99 3.99 0 0 1-3.989-3.989v-2.023a3.99 3.99 0 0 1 3.989-3.989h0.023a3.99 3.99 0 0 1 3.989 3.989v2.023z" fill="#FADD60" p-id="7878"></path><path d="M474.433 840c2.203 0 3.567-2.053 3.567-4.256v-1.596c0-0.137 0.184-0.266 0.171-0.399-2.646 0.237-6.21 0.214-8.146 0.177-0.004 0.075-0.025 0.146-0.025 0.221v1.596c0 2.203 2.002 4.256 4.205 4.256h0.228z" fill="#4E342E" p-id="7879"></path><path d="M465.259 833.892a9.146 1.453 0 1 0 18.292 0 9.146 1.453 0 1 0-18.292 0Z" fill="#FADD60" p-id="7880"></path><path d="M56.534 685s-0.003 0.026-0.003-0.012c0-19.463 15.778-35.191 35.241-35.191 0.205 0 0.406 0.037 0.61 0.04 8.065-15.116 23.986-25.395 42.315-25.395 26.475 0 47.937 21.369 47.937 47.844 0 4.438-0.616 8.714-1.744 12.714H56.534z" fill="#B9E389" p-id="7881"></path><path d="M311.906 280.701m-115.309 0a115.309 115.309 0 1 0 230.618 0 115.309 115.309 0 1 0-230.618 0Z" fill="#FCFFE6" p-id="7882"></path><path d="M311.906 280.701m-80.976 0a80.976 80.976 0 1 0 161.952 0 80.976 80.976 0 1 0-161.952 0Z" fill="#FFDA35" p-id="7883"></path><path d="M452.583 253h-11.969c-3.85 0-7.613-2.549-7.613-6.398v-0.192c0-3.85 3.764-7.41 7.613-7.41h0.977c3.85 0 6.409-2.681 6.409-6.531v-0.192c0-3.849-2.56-6.277-6.409-6.277h-44.16c-3.85 0-6.431 2.428-6.431 6.277v0.192c0 3.85 2.581 6.531 6.431 6.531h18.251c3.85 0 6.319 3.56 6.319 7.41v0.192c0 3.85-2.469 6.398-6.319 6.398H365.042c-3.85 0-7.041 3.693-7.041 7.542v0.192c0 3.85 3.191 7.266 7.041 7.266h87.542c3.85 0 6.417-3.416 6.417-7.266v-0.192c-0.001-3.849-2.569-7.542-6.418-7.542zM923.021 332h-11.969c-3.85 0-7.052-2.231-7.052-6.08v-0.192c0-3.849 3.202-6.728 7.052-6.728h0.977c3.85 0 6.971-3.363 6.971-7.213v-0.192c0-3.849-3.121-6.595-6.971-6.595h-44.16c-3.85 0-6.869 2.746-6.869 6.595v0.192c0 3.85 3.02 7.213 6.869 7.213h18.251c3.85 0 6.88 2.878 6.88 6.728v0.192c0 3.85-3.031 6.08-6.88 6.08H835.48c-3.85 0-6.479 4.011-6.479 7.86v0.192c0 3.85 2.63 6.948 6.479 6.948h87.542c3.85 0 6.979-3.098 6.979-6.948v-0.192c-0.001-3.849-3.13-7.86-6.98-7.86zM333.767 326h-93.012c-3.85 0-6.754 3.044-6.754 6.894v0.192c0 3.849 2.905 7.914 6.754 7.914h9.613c3.85 0 6.632 2.177 6.632 6.026v0.192c0 3.849-2.782 6.782-6.632 6.782h-18.251c-3.85 0-7.118 3.309-7.118 7.159v0.192c0 3.849 3.268 6.649 7.118 6.649H276.277c3.85 0 6.722-2.8 6.722-6.649v-0.192c0-3.85-2.873-7.159-6.722-7.159h-0.977c-3.85 0-7.301-2.932-7.301-6.782v-0.192c0-3.85 3.451-6.026 7.301-6.026H333.766c3.85 0 6.233-4.065 6.233-7.914v-0.192c0.001-3.85-2.383-6.894-6.232-6.894z" fill="#FFFFFF" p-id="7884"></path></svg>