<?xml version="1.0" standalone="no"?><!DOCTYPE svg PUBLIC "-//W3C//DTD SVG 1.1//EN" "http://www.w3.org/Graphics/SVG/1.1/DTD/svg11.dtd"><svg t="1629127062937" class="icon" viewBox="0 0 1024 1024" version="1.1" xmlns="http://www.w3.org/2000/svg" p-id="2395" xmlns:xlink="http://www.w3.org/1999/xlink" width="200" height="200"><defs><style type="text/css"></style></defs><path d="M244.5 432.1l-28.7 159.8h107.5l4.5-26.1-80.2-0.4 24.2-133.3zM380.5 432.1L354 591.9h24.6L407 432.1zM775.8 432.1l-27.3 159.8h27.3l25.7-159.8z" fill="#FFFFFF" p-id="2396"></path><path d="M514 512m-414.8 0a414.8 414.8 0 1 0 829.6 0 414.8 414.8 0 1 0-829.6 0Z" fill="#FFE32A" p-id="2397"></path><path d="M163.2 374.7l102.4 168.1v107.9h60.7V542.8l102.5-168.1h-69.2l-63.6 107-64.1-108.8z" p-id="2398"></path><path d="M557 621.9c-0.4-20.7-0.9-126.7-0.9-126.7s1.3-21.1-22.5-36.9c-23.8-15.7-71-14.4-71-14.4s-44 0.4-63.4 18.9c-10 8.3-25.6 30.6-25.6 49 13.9 0.4 54.8 0.2 54.8 0.2s-1.3-33.9 40-31.2c41.3 2.7 33.3 34.2 33.3 34.2s-4.5 13.5-28.3 16.2c-23.8 2.7-53 4.5-69.7 12.1-16.6 7.6-30.1 16.6-35.1 39.1-4.9 22.5 5.4 41.8 5.4 41.8s9 27 49 30.6c40 3.6 68.2-9 79.3-22 1.2 14.8 7.4 18 7.4 18l52.6-1.8c0.1-0.1-4.8-6.4-5.3-27.1z m-74.3-7.2c-19.3 11.7-54.7 6.6-58.6-10.8-7.2-26.1 12.1-40.5 48.5-42.2 24.4-3.3 29.5-8.5 29.5-8.5 0.8 31.5 2.6 45.2-19.4 61.5zM580.2 372.9H635v277.7h-54.8zM850 564.4s9-115.6-100.2-120.5C637.9 449.8 650 565.7 650 567.1s9.2 88.9 99.9 88.3c90.7-0.6 94.7-66.7 94.7-66.7l-45.8-2.1s-5.1 29.9-48.9 29c-42.8-6.7-48.7-44-46.4-51.2H850z m-101.5-79.6c44.3-0.9 43.8 44.5 43.8 44.5h-87.6s-0.4-43.6 43.8-44.5z" p-id="2399"></path></svg>